<svg width="505" height="554" viewBox="0 0 505 554" fill="none" xmlns="http://www.w3.org/2000/svg">
<rect x="164" width="341" height="554" rx="25" fill="#5E3B11"/>
<rect width="38" height="105" rx="10" transform="matrix(0 -1 -1 0 182 115)" fill="#5E3B11"/>
<rect width="38" height="105" rx="10" transform="matrix(0 -1 -1 0 105 61)" fill="#5E3B11"/>
<rect width="38" height="73" rx="10" transform="matrix(-1 0 0 1 105 42)" fill="#5E3B11"/>
<rect x="209" y="96" width="30" height="200" rx="10" fill="#35220A"/>
<rect x="450" y="53" width="30" height="125" rx="10" fill="#35220A"/>
<rect x="450" y="196" width="30" height="25" rx="10" fill="#35220A"/>
<rect x="301" y="42" width="30" height="125" rx="10" fill="#35220A"/>
<rect x="209" y="334" width="30" height="125" rx="10" fill="#35220A"/>
<rect x="393" y="96" width="30" height="300" rx="10" fill="#35220A"/>
<rect x="301" y="211" width="30" height="300" rx="10" fill="#35220A"/>
</svg>
