<svg width="5321" height="5629" viewBox="0 0 5321 5629" fill="none" xmlns="http://www.w3.org/2000/svg">
<rect width="4859" height="5629" fill="#FEFAE0"/>
<path d="M556.294 366.517C552.999 355.974 558.875 344.757 569.417 341.461L578.962 338.478C589.505 335.183 600.723 341.058 604.018 351.601L648.765 494.771C652.884 507.95 645.54 521.972 632.362 526.091C619.183 530.21 605.161 522.866 601.042 509.687L556.294 366.517Z" fill="#606C38"/>
<rect x="562.484" y="362.859" width="35" height="100" rx="17.5" transform="rotate(-62.3565 562.484 362.859)" fill="#606C38"/>
<rect width="35" height="100" rx="17.5" transform="matrix(-0.885852 -0.463968 -0.463968 0.885852 597.047 352.057)" fill="#606C38"/>
<rect x="580.209" y="396.101" width="35" height="114.342" rx="17.5" transform="rotate(-41.5991 580.209 396.101)" fill="#606C38"/>
<rect width="35" height="114.342" rx="17.5" transform="matrix(-0.992786 -0.119896 -0.119896 0.992786 600.121 389.877)" fill="#606C38"/>
<rect x="559.096" y="318.494" width="15" height="121" rx="7.5" transform="rotate(-17.3565 559.096 318.494)" fill="#5E3B11"/>
<path d="M3955.81 3136.66C3949.16 3127.84 3950.91 3115.3 3959.72 3108.64L3967.7 3102.62C3976.52 3095.96 3989.06 3097.71 3995.72 3106.52L4086.11 3226.23C4094.43 3237.25 4092.24 3252.93 4081.22 3261.25C4070.2 3269.57 4054.53 3267.38 4046.2 3256.36L3955.81 3136.66Z" fill="#606C38"/>
<rect x="3960.41" y="3131.12" width="35" height="100" rx="17.5" transform="rotate(-82.0569 3960.41 3131.12)" fill="#606C38"/>
<rect width="35" height="100" rx="17.5" transform="matrix(-0.990406 -0.13819 -0.13819 0.990406 3989.31 3109.3)" fill="#606C38"/>
<rect x="3988.3" y="3156.45" width="35" height="114.342" rx="17.5" transform="rotate(-61.2995 3988.3 3156.45)" fill="#606C38"/>
<rect width="35" height="114.342" rx="17.5" transform="matrix(-0.975094 0.221791 0.221791 0.975094 4004.95 3143.87)" fill="#606C38"/>
<rect x="3942.26" y="3090.5" width="15" height="121" rx="7.5" transform="rotate(-37.0569 3942.26 3090.5)" fill="#5E3B11"/>
<path d="M3197.41 184.465C3191.5 175.128 3194.29 162.775 3203.63 156.874L3212.08 151.532C3221.42 145.631 3233.77 148.416 3239.67 157.754L3319.81 284.554C3327.18 296.226 3323.7 311.667 3312.03 319.044C3300.36 326.42 3284.92 322.938 3277.54 311.266L3197.41 184.465Z" fill="#606C38"/>
<rect x="3202.44" y="179.335" width="35" height="100" rx="17.5" transform="rotate(-77.2919 3202.44 179.335)" fill="#606C38"/>
<rect width="35" height="100" rx="17.5" transform="matrix(-0.975503 -0.219985 -0.219985 0.975503 3233.05 159.99)" fill="#606C38"/>
<rect x="3228.14" y="206.887" width="35" height="114.342" rx="17.5" transform="rotate(-56.5345 3228.14 206.887)" fill="#606C38"/>
<rect width="35" height="114.342" rx="17.5" transform="matrix(-0.990148 0.140024 0.140024 0.990148 3245.77 195.74)" fill="#606C38"/>
<rect x="3187.74" y="137.343" width="15" height="121" rx="7.5" transform="rotate(-32.2919 3187.74 137.343)" fill="#5E3B11"/>
<path d="M2178.65 704.355C2174.35 694.182 2179.11 682.447 2189.28 678.144L2198.49 674.249C2208.66 669.947 2220.4 674.706 2224.7 684.879L2283.13 823.033C2288.51 835.749 2282.56 850.418 2269.84 855.796C2257.12 861.174 2242.45 855.225 2237.08 842.508L2178.65 704.355Z" fill="#606C38"/>
<rect x="2184.46" y="700.114" width="35" height="100" rx="17.5" transform="rotate(-67.9241 2184.46 700.114)" fill="#606C38"/>
<rect width="35" height="100" rx="17.5" transform="matrix(-0.926687 -0.375834 -0.375834 0.926687 2217.81 686.01)" fill="#606C38"/>
<rect x="2205.32" y="731.479" width="35" height="114.342" rx="17.5" transform="rotate(-47.1667 2205.32 731.479)" fill="#606C38"/>
<rect width="35" height="114.342" rx="17.5" transform="matrix(-0.999735 -0.0230105 -0.0230105 0.999735 2224.54 723.354)" fill="#606C38"/>
<rect x="2176.78" y="656.288" width="15" height="121" rx="7.5" transform="rotate(-22.9241 2176.78 656.288)" fill="#5E3B11"/>
<path d="M527.08 1933.82C519.39 1925.89 519.584 1913.22 527.514 1905.53L534.693 1898.57C542.622 1890.88 555.284 1891.08 562.974 1899.01L667.399 2006.69C677.011 2016.6 676.768 2032.43 666.856 2042.04C656.944 2051.65 641.117 2051.41 631.505 2041.5L527.08 1933.82Z" fill="#606C38"/>
<rect x="530.961" y="1927.76" width="35" height="100" rx="17.5" transform="rotate(-89.1203 530.961 1927.76)" fill="#606C38"/>
<rect width="35" height="100" rx="17.5" transform="matrix(-0.999882 -0.0153534 -0.0153534 0.999882 556.955 1902.55)" fill="#606C38"/>
<rect x="561.754" y="1949.46" width="35" height="114.342" rx="17.5" transform="rotate(-68.3629 561.754 1949.46)" fill="#606C38"/>
<rect width="35" height="114.342" rx="17.5" transform="matrix(-0.940421 0.340013 0.340013 0.940421 576.732 1934.94)" fill="#606C38"/>
<rect x="507.957" y="1889.68" width="15" height="121" rx="7.5" transform="rotate(-44.1203 507.957 1889.68)" fill="#5E3B11"/>
<path d="M2330.76 1612.29C2322.95 1604.48 2322.94 1591.82 2330.75 1584.01L2337.82 1576.93C2345.62 1569.12 2358.28 1569.11 2366.1 1576.92L2472.22 1682.93C2481.99 1692.69 2482 1708.51 2472.24 1718.28C2462.48 1728.05 2446.65 1728.06 2436.88 1718.3L2330.76 1612.29Z" fill="#606C38"/>
<rect x="2334.55" y="1606.18" width="35" height="100" rx="17.5" transform="rotate(-90.0302 2334.55 1606.18)" fill="#606C38"/>
<rect width="35" height="100" rx="17.5" transform="matrix(-1 0.000526541 0.000526541 1 2360.14 1580.56)" fill="#606C38"/>
<rect x="2365.68" y="1627.38" width="35" height="114.342" rx="17.5" transform="rotate(-69.2728 2365.68 1627.38)" fill="#606C38"/>
<rect width="35" height="114.342" rx="17.5" transform="matrix(-0.934903 0.354904 0.354904 0.934903 2380.43 1612.62)" fill="#606C38"/>
<rect x="2310.94" y="1568.46" width="15" height="121" rx="7.5" transform="rotate(-45.0302 2310.94 1568.46)" fill="#5E3B11"/>
<path d="M2500.19 3845.65C2495.94 3835.45 2500.76 3823.74 2510.96 3819.5L2520.19 3815.65C2530.39 3811.41 2542.1 3816.23 2546.34 3826.42L2604.02 3964.89C2609.33 3977.64 2603.3 3992.28 2590.55 3997.58C2577.81 4002.89 2563.17 3996.86 2557.86 3984.12L2500.19 3845.65Z" fill="#606C38"/>
<rect x="2506.02" y="3841.44" width="35" height="100" rx="17.5" transform="rotate(-67.6129 2506.02 3841.44)" fill="#606C38"/>
<rect width="35" height="100" rx="17.5" transform="matrix(-0.924632 -0.380863 -0.380863 0.924632 2539.44 3827.52)" fill="#606C38"/>
<rect x="2526.71" y="3872.92" width="35" height="114.342" rx="17.5" transform="rotate(-46.8555 2526.71 3872.92)" fill="#606C38"/>
<rect width="35" height="114.342" rx="17.5" transform="matrix(-0.999596 -0.0284407 -0.0284407 0.999596 2545.97 3864.9)" fill="#606C38"/>
<rect x="2498.58" y="3797.57" width="15" height="121" rx="7.5" transform="rotate(-22.6129 2498.58 3797.57)" fill="#5E3B11"/>
<path d="M377.952 3349.39C369.949 3341.78 369.632 3329.12 377.245 3321.12L384.137 3313.87C391.75 3305.87 404.409 3305.55 412.412 3313.16L521.098 3416.54C531.102 3426.06 531.498 3441.88 521.982 3451.89C512.467 3461.89 496.642 3462.29 486.638 3452.77L377.952 3349.39Z" fill="#606C38"/>
<rect x="381.586" y="3343.19" width="35" height="100" rx="17.5" transform="rotate(-91.4333 381.586 3343.19)" fill="#606C38"/>
<rect width="35" height="100" rx="17.5" transform="matrix(-0.999687 0.0250125 0.0250125 0.999687 406.543 3316.95)" fill="#606C38"/>
<rect x="413.23" y="3363.63" width="35" height="114.342" rx="17.5" transform="rotate(-70.6759 413.23 3363.63)" fill="#606C38"/>
<rect width="35" height="114.342" rx="17.5" transform="matrix(-0.925932 0.37769 0.37769 0.925932 427.609 3348.51)" fill="#606C38"/>
<rect x="357.064" y="3306.06" width="15" height="121" rx="7.5" transform="rotate(-46.4333 357.064 3306.06)" fill="#5E3B11"/>
<path d="M1398.5 4868.34C1392.62 4858.99 1395.43 4846.65 1404.78 4840.77L1413.25 4835.44C1422.6 4829.56 1434.94 4832.37 1440.82 4841.72L1520.68 4968.7C1528.03 4980.39 1524.52 4995.82 1512.83 5003.17C1501.14 5010.52 1485.71 5007.01 1478.36 4995.32L1398.5 4868.34Z" fill="#606C38"/>
<rect x="1403.55" y="4863.22" width="35" height="100" rx="17.5" transform="rotate(-77.1663 1403.55 4863.22)" fill="#606C38"/>
<rect width="35" height="100" rx="17.5" transform="matrix(-0.975019 -0.222122 -0.222122 0.975019 1434.2 4843.95)" fill="#606C38"/>
<rect x="1429.18" y="4890.83" width="35" height="114.342" rx="17.5" transform="rotate(-56.409 1429.18 4890.83)" fill="#606C38"/>
<rect width="35" height="114.342" rx="17.5" transform="matrix(-0.990453 0.137854 0.137854 0.990453 1446.84 4879.72)" fill="#606C38"/>
<rect x="1388.93" y="4821.2" width="15" height="121" rx="7.5" transform="rotate(-32.1663 1388.93 4821.2)" fill="#5E3B11"/>
<path d="M1125.13 1258.94C1124.02 1264.35 1118.73 1267.84 1113.32 1266.72L1084.92 1260.87C1049.76 1253.63 1027.12 1219.26 1034.36 1184.1L1034.77 1182.14C1036.44 1174.03 1044.37 1168.8 1052.48 1170.47L1075.99 1175.31C1111.15 1182.55 1133.78 1216.93 1126.54 1252.09L1125.13 1258.94Z" fill="#606C38"/>
<path d="M1105 1247.65C1097.6 1243.07 1081.02 1231.69 1073.86 1222.86C1069.02 1216.91 1059.31 1201.48 1049.75 1186.76M1049.75 1186.76C1041.58 1174.19 1033.53 1162.12 1028.73 1156.9C1023.76 1151.5 1020.08 1148.32 1017.64 1146.57C1016.37 1145.66 1015.27 1146.75 1015.9 1148.19V1148.19C1016.05 1148.52 1016.28 1148.8 1016.58 1149C1023.04 1153.5 1037.99 1166.79 1049.75 1186.76Z" stroke="#5E3B11" stroke-width="3"/>
<path d="M3516.81 1958.18C3515.7 1963.59 3510.41 1967.08 3505 1965.96L3476.6 1960.11C3441.44 1952.87 3418.8 1918.5 3426.04 1883.34L3426.45 1881.38C3428.12 1873.27 3436.05 1868.04 3444.17 1869.71L3467.67 1874.55C3502.83 1881.79 3525.47 1916.17 3518.23 1951.33L3516.81 1958.18Z" fill="#606C38"/>
<path d="M3496.68 1946.89C3489.28 1942.31 3472.7 1930.93 3465.54 1922.1C3460.7 1916.15 3450.99 1900.72 3441.43 1886M3441.43 1886C3433.27 1873.42 3425.22 1861.36 3420.41 1856.14C3415.44 1850.74 3411.76 1847.56 3409.33 1845.81C3408.05 1844.9 3406.95 1845.99 3407.59 1847.42V1847.42C3407.73 1847.76 3407.97 1848.04 3408.26 1848.24C3414.72 1852.74 3429.67 1866.03 3441.43 1886Z" stroke="#5E3B11" stroke-width="3"/>
<path d="M1839.81 3072.18C1838.7 3077.59 1833.41 3081.07 1828 3079.96L1799.6 3074.11C1764.44 3066.87 1741.8 3032.5 1749.04 2997.34L1749.45 2995.38C1751.12 2987.26 1759.05 2982.04 1767.17 2983.71L1790.67 2988.55C1825.83 2995.79 1848.47 3030.17 1841.23 3065.33L1839.81 3072.18Z" fill="#606C38"/>
<path d="M1819.68 3060.89C1812.28 3056.3 1795.7 3044.93 1788.54 3036.1C1783.7 3030.15 1773.99 3014.72 1764.43 2999.99M1764.43 2999.99C1756.27 2987.42 1748.22 2975.36 1743.41 2970.14C1738.44 2964.73 1734.76 2961.55 1732.33 2959.81C1731.05 2958.9 1729.95 2959.99 1730.59 2961.42V2961.42C1730.73 2961.75 1730.97 2962.03 1731.26 2962.24C1737.72 2966.74 1752.67 2980.03 1764.43 2999.99Z" stroke="#5E3B11" stroke-width="3"/>
<path d="M1141.82 4663.18C1140.7 4668.59 1135.41 4672.07 1130 4670.96L1101.6 4665.11C1066.44 4657.87 1043.81 4623.5 1051.05 4588.34L1051.45 4586.38C1053.12 4578.26 1061.05 4573.04 1069.17 4574.71L1092.67 4579.55C1127.83 4586.79 1150.47 4621.17 1143.23 4656.33L1141.82 4663.18Z" fill="#606C38"/>
<path d="M1121.68 4651.89C1114.29 4647.3 1097.71 4635.93 1090.54 4627.1C1085.71 4621.15 1075.99 4605.72 1066.43 4590.99M1066.43 4590.99C1058.27 4578.42 1050.22 4566.36 1045.42 4561.14C1040.44 4555.73 1036.76 4552.55 1034.33 4550.81C1033.05 4549.9 1031.95 4550.99 1032.59 4552.42V4552.42C1032.73 4552.75 1032.97 4553.03 1033.27 4553.24C1039.72 4557.74 1054.67 4571.03 1066.43 4590.99Z" stroke="#5E3B11" stroke-width="3"/>
<path d="M1984.81 4863.18C1983.7 4868.59 1978.41 4872.07 1973 4870.96L1944.6 4865.11C1909.44 4857.87 1886.8 4823.5 1894.04 4788.34L1894.45 4786.38C1896.12 4778.26 1904.05 4773.04 1912.17 4774.71L1935.67 4779.55C1970.83 4786.79 1993.47 4821.17 1986.23 4856.33L1984.81 4863.18Z" fill="#606C38"/>
<path d="M1964.68 4851.89C1957.28 4847.3 1940.7 4835.93 1933.54 4827.1C1928.7 4821.15 1918.99 4805.72 1909.43 4790.99M1909.43 4790.99C1901.27 4778.42 1893.22 4766.36 1888.41 4761.14C1883.44 4755.73 1879.76 4752.55 1877.33 4750.81C1876.05 4749.9 1874.95 4750.99 1875.59 4752.42V4752.42C1875.73 4752.76 1875.97 4753.03 1876.26 4753.24C1882.72 4757.74 1897.67 4771.03 1909.43 4790.99Z" stroke="#5E3B11" stroke-width="3"/>
<path d="M4453.82 5206.18C4452.7 5211.59 4447.41 5215.08 4442 5213.96L4413.6 5208.11C4378.44 5200.87 4355.81 5166.5 4363.05 5131.34L4363.45 5129.38C4365.12 5121.27 4373.05 5116.04 4381.17 5117.71L4404.67 5122.55C4439.83 5129.79 4462.47 5164.17 4455.23 5199.33L4453.82 5206.18Z" fill="#606C38"/>
<path d="M4433.68 5194.89C4426.29 5190.31 4409.71 5178.93 4402.54 5170.1C4397.71 5164.15 4387.99 5148.72 4378.43 5134M4378.43 5134C4370.27 5121.42 4362.22 5109.36 4357.42 5104.14C4352.44 5098.74 4348.76 5095.56 4346.33 5093.81C4345.05 5092.9 4343.95 5093.99 4344.59 5095.42V5095.42C4344.73 5095.76 4344.97 5096.04 4345.27 5096.24C4351.72 5100.74 4366.67 5114.03 4378.43 5134Z" stroke="#5E3B11" stroke-width="3"/>
<path d="M4246.81 868.183C4245.7 873.592 4240.41 877.075 4235 875.961L4206.6 870.111C4171.44 862.871 4148.8 828.498 4156.04 793.337L4156.45 791.378C4158.12 783.264 4166.05 778.041 4174.17 779.712L4197.67 784.553C4232.83 791.793 4255.47 826.166 4248.23 861.327L4246.81 868.183Z" fill="#606C38"/>
<path d="M4226.68 856.89C4219.28 852.304 4202.7 840.926 4195.54 832.099C4190.7 826.147 4180.99 810.72 4171.43 795.994M4171.43 795.994C4163.27 783.423 4155.22 771.363 4150.41 766.142C4145.44 760.735 4141.76 757.554 4139.33 755.811C4138.05 754.898 4136.95 755.991 4137.59 757.424V757.424C4137.73 757.756 4137.97 758.034 4138.26 758.242C4144.72 762.736 4159.67 776.027 4171.43 795.994Z" stroke="#5E3B11" stroke-width="3"/>
<path d="M3110.81 3717.18C3109.7 3722.59 3104.41 3726.07 3099 3724.96L3070.6 3719.11C3035.44 3711.87 3012.8 3677.5 3020.04 3642.34L3020.45 3640.38C3022.12 3632.26 3030.05 3627.04 3038.16 3628.71L3061.67 3633.55C3096.83 3640.79 3119.46 3675.17 3112.22 3710.33L3110.81 3717.18Z" fill="#606C38"/>
<path d="M3090.68 3705.89C3083.28 3701.3 3066.7 3689.93 3059.54 3681.1C3054.7 3675.15 3044.99 3659.72 3035.43 3644.99M3035.43 3644.99C3027.26 3632.42 3019.21 3620.36 3014.41 3615.14C3009.44 3609.74 3005.76 3606.55 3003.32 3604.81C3002.05 3603.9 3000.95 3604.99 3001.58 3606.42V3606.42C3001.73 3606.76 3001.96 3607.03 3002.26 3607.24C3008.72 3611.74 3023.67 3625.03 3035.43 3644.99Z" stroke="#5E3B11" stroke-width="3"/>
<path d="M3587.81 3987.18C3586.7 3992.59 3581.41 3996.07 3576 3994.96L3547.6 3989.11C3512.44 3981.87 3489.8 3947.5 3497.04 3912.34L3497.45 3910.38C3499.12 3902.26 3507.05 3897.04 3515.17 3898.71L3538.67 3903.55C3573.83 3910.79 3596.47 3945.17 3589.23 3980.33L3587.81 3987.18Z" fill="#606C38"/>
<path d="M3567.68 3975.89C3560.28 3971.3 3543.7 3959.93 3536.54 3951.1C3531.7 3945.15 3521.99 3929.72 3512.43 3914.99M3512.43 3914.99C3504.27 3902.42 3496.22 3890.36 3491.41 3885.14C3486.44 3879.74 3482.76 3876.55 3480.33 3874.81C3479.05 3873.9 3477.95 3874.99 3478.59 3876.42V3876.42C3478.73 3876.76 3478.97 3877.03 3479.26 3877.24C3485.72 3881.74 3500.67 3895.03 3512.43 3914.99Z" stroke="#5E3B11" stroke-width="3"/>
</svg>
