<svg width="691" height="257" viewBox="0 0 691 257" fill="none" xmlns="http://www.w3.org/2000/svg">
<rect x="112" y="74" width="341" height="183" rx="25" fill="#5E3B11"/>
<rect x="435" y="143" width="38" height="105" rx="10" transform="rotate(-90 435 143)" fill="#5E3B11"/>
<rect x="502" y="38" width="38" height="138" rx="10" transform="rotate(-90 502 38)" fill="#5E3B11"/>
<rect x="502" width="38" height="143" rx="10" fill="#5E3B11"/>
<rect x="82" y="15" width="38" height="120" rx="10" fill="#5E3B11"/>
<rect y="53" width="38" height="120" rx="10" transform="rotate(-90 0 53)" fill="#5E3B11"/>
<rect x="512" y="105" width="38" height="179" rx="10" transform="rotate(-90 512 105)" fill="#5E3B11"/>
<rect x="398" y="86" width="30" height="138" rx="10" fill="#35220A"/>
<rect x="170" y="128" width="30" height="115" rx="10" fill="#35220A"/>
<rect x="172" y="86" width="30" height="25" rx="10" fill="#35220A"/>
<rect x="249" y="98" width="30" height="106" rx="10" fill="#35220A"/>
</svg>
